<?xml version="1.0" encoding="UTF-8"?>
<svg id="Layer_2" xmlns="http://www.w3.org/2000/svg" viewBox="0 0 1044.25 229">
  <defs>
    <style>
      .cls-1 {
        fill: #fbfbf8;
      }

      .cls-2 {
        fill: #104d58;
      }

      .cls-3 {
        fill: #27848c;
      }
    </style>
  </defs>
  <g id="Layer_2-2" data-name="Layer_2">
    <circle class="cls-3" cx="114.5" cy="114.5" r="114.5"/>
    <path class="cls-1" d="M39.5,121.58h35.01c-.26,1.71-.36,3.75-.01,6,1.28,8.35,7.8,13.32,10,15,1.02.78,4.52,3.35,10,5,1.88.56,15.62,4.49,26-3,2-1.44,5.32-3.91,6-8,.65-3.91-1.47-7.18-2-8-4.69-7.23-14.98-5.68-29-9-8.4-1.99-23.07-5.47-32-17-1.39-1.8-7.82-13.05-5-27,2.76-13.69,12.49-20.7,18-24,21.57-12.9,44.67-4.51,46-4,16.15,6.17,24.36,18.57,27,23-7.33,5.33-14.67,10.67-22,16-.24-1.46-.75-3.65-2-6-5.32-9.95-19.14-13.63-29-11-2.28.61-5.99,1.65-8,5-1.51,2.5-1.72,5.73-1,8,2.05,6.44,12.13,6.9,30,12,12.96,3.7,20.77,5.93,28,11,9.77,6.85,15.02,16.48,18,24v-36h26v86c-1,1.67-2,3.33-3,5-12.67-10.67-25.33-21.33-38-32-1.62,2.71-4.17,6.39-8,10-17.84,16.82-43.61,13.56-48,13-4.56-.58-33.81-4.29-47-29-5.28-9.89-6.02-19.45-6-25Z"/>
    <path class="cls-2" d="M279.1,140.82c1.21,2.1,2.77,3.81,4.67,5.15,1.91,1.33,4.1,2.32,6.58,2.96,2.48.64,5.05.95,7.72.95,1.91,0,3.91-.22,6.01-.67,2.1-.44,4.01-1.14,5.72-2.1,1.72-.95,3.15-2.22,4.29-3.81,1.14-1.59,1.72-3.59,1.72-6.01,0-4.07-2.7-7.12-8.11-9.16-5.41-2.03-12.94-4.07-22.6-6.1-3.94-.89-7.79-1.94-11.54-3.15-3.75-1.21-7.09-2.8-10.01-4.77-2.93-1.97-5.28-4.45-7.06-7.44-1.78-2.99-2.67-6.64-2.67-10.97,0-6.36,1.24-11.57,3.72-15.64,2.48-4.07,5.75-7.28,9.82-9.63,4.07-2.35,8.65-4.01,13.73-4.96,5.08-.95,10.3-1.43,15.64-1.43s10.52.51,15.55,1.53c5.02,1.02,9.5,2.74,13.45,5.15,3.94,2.42,7.21,5.63,9.82,9.63,2.6,4.01,4.16,9.06,4.67,15.16h-25.75c-.38-5.21-2.35-8.74-5.91-10.59-3.56-1.84-7.76-2.77-12.59-2.77-1.53,0-3.18.1-4.96.29-1.78.19-3.4.6-4.86,1.24-1.46.64-2.7,1.56-3.72,2.77-1.02,1.21-1.53,2.83-1.53,4.86,0,2.42.89,4.39,2.67,5.91,1.78,1.53,4.1,2.77,6.96,3.72s6.13,1.81,9.82,2.58c3.69.76,7.44,1.59,11.25,2.48,3.94.89,7.79,1.97,11.54,3.24,3.75,1.27,7.09,2.96,10.01,5.05,2.92,2.1,5.28,4.71,7.06,7.82,1.78,3.12,2.67,6.96,2.67,11.54,0,6.48-1.31,11.92-3.91,16.31-2.61,4.39-6.01,7.92-10.21,10.59s-9,4.55-14.4,5.63c-5.41,1.08-10.91,1.62-16.5,1.62s-11.32-.57-16.79-1.72c-5.47-1.14-10.33-3.05-14.59-5.72-4.26-2.67-7.76-6.2-10.49-10.59-2.74-4.39-4.23-9.89-4.48-16.5h25.75c0,2.93.6,5.44,1.81,7.53Z"/>
    <path class="cls-2" d="M385.82,29.14v51.31h.57c3.43-5.72,7.82-9.89,13.16-12.49,5.34-2.6,10.55-3.91,15.64-3.91,7.25,0,13.19.99,17.83,2.96,4.64,1.97,8.3,4.71,10.97,8.2,2.67,3.5,4.55,7.76,5.63,12.78,1.08,5.02,1.62,10.59,1.62,16.69v60.66h-27.09v-55.7c0-8.14-1.27-14.21-3.81-18.22-2.55-4.01-7.06-6.01-13.54-6.01-7.38,0-12.72,2.19-16.02,6.58-3.31,4.39-4.96,11.61-4.96,21.65v51.69h-27.09V29.14h27.09Z"/>
    <rect class="cls-3" x="472.61" y="26.76" width="27.08" height="27.08" rx="13.54" ry="13.54"/>
    <rect class="cls-2" x="472.61" y="66.72" width="27.08" height="98.61"/>
    <path class="cls-2" d="M557.48,194.71c-5.21,3.43-12.46,5.15-21.74,5.15-2.8,0-5.56-.1-8.3-.29-2.74-.19-5.5-.41-8.3-.67v-22.32c2.54.25,5.15.51,7.82.76,2.67.25,5.34.32,8.01.19,3.56-.38,6.2-1.78,7.92-4.2,1.72-2.42,2.58-5.09,2.58-8.01,0-2.16-.38-4.2-1.14-6.1l-34.52-92.51h28.8l22.32,67.52h.38l21.55-67.52h28.04l-41.2,110.82c-2.93,8.01-7,13.73-12.21,17.17Z"/>
    <path class="cls-2" d="M709.31,156.18c-.51-4.07-.76-8.33-.76-12.78v-51.31c0-5.98-1.33-10.78-4-14.4-2.67-3.63-6.11-6.46-10.3-8.49-4.2-2.03-8.84-3.4-13.93-4.1-5.09-.7-10.11-1.05-15.07-1.05-5.47,0-10.9.54-16.31,1.62-5.4,1.08-10.27,2.89-14.59,5.44-4.32,2.54-7.88,5.91-10.68,10.1-2.8,4.2-4.39,9.48-4.77,15.84h27.09c.51-5.34,2.29-9.16,5.34-11.45,3.05-2.29,7.25-3.43,12.59-3.43,2.41,0,4.67.16,6.77.47,2.1.32,3.94.96,5.53,1.91,1.59.96,2.86,2.29,3.82,4.01.95,1.71,1.43,4.04,1.43,6.96.12,2.8-.7,4.93-2.48,6.39-1.79,1.46-4.2,2.57-7.25,3.34-3.05.76-6.55,1.33-10.49,1.71-3.95.39-7.95.9-12.02,1.53-4.07.64-8.11,1.5-12.11,2.58-4.01,1.08-7.57,2.7-10.68,4.86-3.12,2.16-5.66,5.05-7.63,8.68-1.98,3.62-2.96,8.23-2.96,13.83,0,5.08.86,9.47,2.58,13.16,1.71,3.69,4.1,6.74,7.15,9.15,3.05,2.42,6.61,4.2,10.68,5.34,4.07,1.15,8.46,1.72,13.16,1.72,6.11,0,12.08-.89,17.93-2.67,5.85-1.78,10.94-4.89,15.26-9.35.13,1.66.35,3.28.67,4.87.31,1.59.73,3.15,1.24,4.67h27.47c-1.28-2.03-2.17-5.08-2.68-9.15ZM681.47,127.18c0,1.53-.16,3.56-.48,6.11-.32,2.54-1.18,5.05-2.58,7.53-1.4,2.48-3.56,4.61-6.48,6.39-2.93,1.78-7.06,2.67-12.4,2.67-2.16,0-4.26-.19-6.29-.57-2.04-.38-3.82-1.05-5.34-2-1.53-.96-2.74-2.26-3.63-3.91-.89-1.65-1.33-3.69-1.33-6.11,0-2.54.44-4.64,1.33-6.29.89-1.65,2.07-3.02,3.53-4.1,1.46-1.08,3.18-1.94,5.15-2.58,1.97-.63,3.97-1.14,6.01-1.52,2.16-.39,4.32-.7,6.48-.96,2.16-.25,4.23-.57,6.2-.95,1.97-.38,3.82-.86,5.53-1.43,1.72-.57,3.15-1.37,4.3-2.39v10.11Z"/>
    <path class="cls-3" d="M755.28,66.72v13.73h.57c3.43-5.72,7.88-9.89,13.35-12.49,5.47-2.6,11.06-3.91,16.79-3.91,7.25,0,13.19.99,17.83,2.96,4.64,1.97,8.3,4.71,10.97,8.2,2.67,3.5,4.55,7.76,5.63,12.78,1.08,5.02,1.62,10.59,1.62,16.69v60.66h-27.09v-55.7c0-8.14-1.27-14.21-3.81-18.22-2.55-4.01-7.06-6.01-13.54-6.01-7.38,0-12.72,2.19-16.02,6.58-3.31,4.39-4.96,11.61-4.96,21.65v51.69h-27.09v-98.61h25.75Z"/>
    <path class="cls-3" d="M931.91,156.18c-.51-4.07-.77-8.33-.77-12.78v-51.31c0-5.98-1.33-10.78-4-14.4-2.67-3.63-6.11-6.46-10.3-8.49-4.2-2.03-8.84-3.4-13.93-4.1-5.08-.7-10.11-1.05-15.07-1.05-5.46,0-10.9.54-16.3,1.62-5.41,1.08-10.27,2.89-14.6,5.44-4.32,2.54-7.88,5.91-10.68,10.1-2.8,4.2-4.38,9.48-4.77,15.84h27.09c.51-5.34,2.29-9.16,5.34-11.45,3.05-2.29,7.25-3.43,12.59-3.43,2.41,0,4.67.16,6.77.47,2.1.32,3.94.96,5.53,1.91,1.59.96,2.86,2.29,3.82,4.01.95,1.71,1.43,4.04,1.43,6.96.12,2.8-.7,4.93-2.48,6.39-1.78,1.46-4.2,2.57-7.25,3.34-3.05.76-6.55,1.33-10.49,1.71-3.94.39-7.95.9-12.02,1.53-4.07.64-8.1,1.5-12.11,2.58-4,1.08-7.57,2.7-10.68,4.86-3.12,2.16-5.66,5.05-7.63,8.68-1.97,3.62-2.96,8.23-2.96,13.83,0,5.08.86,9.47,2.58,13.16,1.71,3.69,4.1,6.74,7.15,9.15,3.05,2.42,6.61,4.2,10.68,5.34,4.07,1.15,8.46,1.72,13.16,1.72,6.11,0,12.08-.89,17.93-2.67,5.85-1.78,10.94-4.89,15.26-9.35.13,1.66.35,3.28.67,4.87.32,1.59.73,3.15,1.24,4.67h27.47c-1.28-2.03-2.17-5.08-2.67-9.15ZM904.06,127.18c0,1.53-.16,3.56-.48,6.11-.32,2.54-1.18,5.05-2.57,7.53-1.4,2.48-3.57,4.61-6.49,6.39-2.93,1.78-7.06,2.67-12.4,2.67-2.16,0-4.26-.19-6.29-.57-2.04-.38-3.82-1.05-5.34-2-1.53-.96-2.74-2.26-3.63-3.91-.89-1.65-1.33-3.69-1.33-6.11,0-2.54.44-4.64,1.33-6.29s2.07-3.02,3.53-4.1c1.46-1.08,3.18-1.94,5.15-2.58,1.97-.63,3.97-1.14,6.01-1.52,2.16-.39,4.32-.7,6.49-.96,2.16-.25,4.22-.57,6.19-.95,1.98-.38,3.82-.86,5.54-1.43,1.71-.57,3.14-1.37,4.29-2.39v10.11Z"/>
    <polygon class="cls-3" points="944.88 66.72 975.78 66.72 993.13 92.47 1010.3 66.72 1040.25 66.72 1007.82 112.88 1044.25 165.33 1013.35 165.33 992.75 134.24 972.15 165.33 941.82 165.33 977.3 113.45 944.88 66.72"/>
  </g>
</svg>